<svg width="556" height="78" viewBox="0 0 556 78" fill="none" xmlns="http://www.w3.org/2000/svg">
<path d="M22.3537 16.0551H34.8082V47.9642C34.7931 50.9945 34.0279 53.6612 32.5128 55.9642C31.0128 58.2521 28.937 60.04 26.2855 61.3279C23.6491 62.6006 20.6113 63.2369 17.1719 63.2369C14.187 63.2369 11.4598 62.7218 8.99006 61.6915C6.52036 60.646 4.55066 59.0097 3.08097 56.7824C1.61127 54.54 0.883996 51.6309 0.899148 48.0551H13.5355C13.581 49.2218 13.7779 50.2066 14.1264 51.0097C14.4901 51.8127 14.9901 52.4188 15.6264 52.8279C16.2779 53.2218 17.0658 53.4188 17.9901 53.4188C18.9295 53.4188 19.7173 53.2142 20.3537 52.8051C21.0052 52.396 21.4976 51.79 21.831 50.9869C22.1643 50.1688 22.3385 49.1612 22.3537 47.9642V16.0551ZM85.8878 39.3279C85.8878 44.5097 84.8802 48.8809 82.8651 52.4415C80.8499 55.9869 78.1302 58.6763 74.706 60.5097C71.2817 62.3279 67.4635 63.2369 63.2514 63.2369C59.009 63.2369 55.1757 62.3203 51.7514 60.4869C48.3423 58.6385 45.6302 55.9415 43.6151 52.396C41.6151 48.8354 40.6151 44.4794 40.6151 39.3279C40.6151 34.146 41.6151 29.7824 43.6151 26.2369C45.6302 22.6763 48.3423 19.9869 51.7514 18.1688C55.1757 16.3354 59.009 15.4188 63.2514 15.4188C67.4635 15.4188 71.2817 16.3354 74.706 18.1688C78.1302 19.9869 80.8499 22.6763 82.8651 26.2369C84.8802 29.7824 85.8878 34.146 85.8878 39.3279ZM72.8878 39.3279C72.8878 36.54 72.5166 34.1915 71.7741 32.2824C71.0469 30.3582 69.9635 28.9036 68.5241 27.9188C67.0999 26.9188 65.3423 26.4188 63.2514 26.4188C61.1605 26.4188 59.3954 26.9188 57.956 27.9188C56.5317 28.9036 55.4484 30.3582 54.706 32.2824C53.9787 34.1915 53.6151 36.54 53.6151 39.3279C53.6151 42.1157 53.9787 44.4718 54.706 46.396C55.4484 48.3051 56.5317 49.7597 57.956 50.7597C59.3954 51.7445 61.1605 52.2369 63.2514 52.2369C65.3423 52.2369 67.0999 51.7445 68.5241 50.7597C69.9635 49.7597 71.0469 48.3051 71.7741 46.396C72.5166 44.4718 72.8878 42.1157 72.8878 39.3279ZM116.825 30.6006C116.704 29.0854 116.136 27.9036 115.121 27.0551C114.121 26.2066 112.598 25.7824 110.553 25.7824C109.25 25.7824 108.181 25.9415 107.348 26.2597C106.53 26.5627 105.924 26.9794 105.53 27.5097C105.136 28.04 104.931 28.646 104.916 29.3279C104.886 29.8885 104.984 30.396 105.212 30.8506C105.454 31.29 105.833 31.6915 106.348 32.0551C106.863 32.4036 107.522 32.7218 108.325 33.0097C109.128 33.2976 110.083 33.5551 111.189 33.7824L115.007 34.6006C117.583 35.146 119.787 35.8657 121.621 36.7597C123.454 37.6536 124.954 38.7066 126.121 39.9188C127.287 41.1157 128.143 42.4642 128.689 43.9642C129.25 45.4642 129.537 47.1006 129.553 48.8733C129.537 51.9339 128.772 54.5248 127.257 56.646C125.742 58.7673 123.575 60.3809 120.757 61.4869C117.954 62.593 114.583 63.146 110.643 63.146C106.598 63.146 103.068 62.5476 100.053 61.3506C97.0526 60.1536 94.7192 58.3127 93.0526 55.8279C91.401 53.3279 90.5677 50.1309 90.5526 46.2369H102.553C102.628 47.6612 102.984 48.8582 103.621 49.8279C104.257 50.7976 105.151 51.5324 106.303 52.0324C107.469 52.5324 108.856 52.7824 110.462 52.7824C111.81 52.7824 112.939 52.6157 113.848 52.2824C114.757 51.9491 115.446 51.4869 115.916 50.896C116.386 50.3051 116.628 49.6309 116.643 48.8733C116.628 48.1612 116.393 47.54 115.939 47.0097C115.5 46.4642 114.772 45.9794 113.757 45.5551C112.742 45.1157 111.371 44.7066 109.643 44.3279L105.007 43.3279C100.886 42.4339 97.6359 40.9415 95.2571 38.8506C92.8935 36.7445 91.7192 33.8733 91.7344 30.2369C91.7192 27.2824 92.5071 24.6991 94.098 22.4869C95.7041 20.2597 97.9238 18.5248 100.757 17.2824C103.606 16.04 106.871 15.4188 110.553 15.4188C114.31 15.4188 117.56 16.0476 120.303 17.3051C123.045 18.5627 125.159 20.3354 126.643 22.6233C128.143 24.896 128.901 27.5551 128.916 30.6006H116.825ZM134.359 62.6006V16.0551H146.996V34.2369H163.723V16.0551H176.359V62.6006H163.723V44.4188H146.996V62.6006H134.359ZM209.905 16.0551H222.541V45.8733C222.541 49.4188 221.693 52.4869 219.996 55.0779C218.314 57.6536 215.965 59.646 212.95 61.0551C209.935 62.4491 206.435 63.146 202.45 63.146C198.435 63.146 194.92 62.4491 191.905 61.0551C188.89 59.646 186.541 57.6536 184.859 55.0779C183.193 52.4869 182.359 49.4188 182.359 45.8733V16.0551H194.996V44.7824C194.996 46.2218 195.314 47.5097 195.95 48.646C196.587 49.7673 197.465 50.646 198.587 51.2824C199.723 51.9188 201.011 52.2369 202.45 52.2369C203.905 52.2369 205.193 51.9188 206.314 51.2824C207.435 50.646 208.314 49.7673 208.95 48.646C209.587 47.5097 209.905 46.2218 209.905 44.7824V16.0551ZM240.638 62.6006H227.001L242.365 16.0551H259.638L275.001 62.6006H261.365L251.183 28.8733H250.82L240.638 62.6006ZM238.092 44.2369H263.729V53.6915H238.092V44.2369Z" fill="#6D4BA5"/>
<path d="M22.3537 16.0551V9.05513H15.3537V16.0551H22.3537ZM34.8082 16.0551H41.8082V9.05513H34.8082V16.0551ZM34.8082 47.9642L41.8082 47.9992L41.8082 47.9817V47.9642H34.8082ZM32.5128 55.9642L26.6649 52.1169L26.6588 52.1262L32.5128 55.9642ZM26.2855 61.3279L29.3288 67.6317L29.3363 67.6281L29.3438 67.6244L26.2855 61.3279ZM8.99006 61.6915L6.26129 68.1377L6.27809 68.1448L6.29494 68.1519L8.99006 61.6915ZM3.08097 56.7824L-2.77364 60.6195L-2.76766 60.6287L-2.76167 60.6377L3.08097 56.7824ZM0.899148 48.0551V41.0551H-6.07125L-6.10079 48.0255L0.899148 48.0551ZM13.5355 48.0551L20.5302 47.7826L20.2681 41.0551H13.5355V48.0551ZM14.1264 51.0097L7.705 53.7963L7.72698 53.847L7.74974 53.8972L14.1264 51.0097ZM15.6264 52.8279L11.8411 58.7161L11.9221 58.7682L12.0045 58.818L15.6264 52.8279ZM20.3537 52.8051L16.6313 46.8769L16.5997 46.8967L16.5684 46.9169L20.3537 52.8051ZM21.831 50.9869L28.2961 53.6706L28.3049 53.6493L28.3136 53.628L21.831 50.9869ZM22.3537 47.9642L29.3531 48.0528L29.3537 48.0085V47.9642H22.3537ZM22.3537 23.0551H34.8082V9.05513H22.3537V23.0551ZM27.8082 16.0551V47.9642H41.8082V16.0551H27.8082ZM27.8083 47.9292C27.7993 49.7438 27.3617 51.0577 26.6649 52.1169L38.3607 59.8115C40.6942 56.2647 41.7869 52.2452 41.8082 47.9992L27.8083 47.9292ZM26.6588 52.1262C25.9053 53.2755 24.8332 54.2512 23.2272 55.0313L29.3438 67.6244C33.0408 65.8287 36.1203 63.2287 38.3668 59.8023L26.6588 52.1262ZM23.2423 55.024C21.7072 55.7651 19.7405 56.2369 17.1719 56.2369V70.2369C21.482 70.2369 25.5911 69.4361 29.3288 67.6317L23.2423 55.024ZM17.1719 56.2369C15.0054 56.2369 13.2076 55.8663 11.6852 55.2311L6.29494 68.1519C9.71186 69.5773 13.3686 70.2369 17.1719 70.2369V56.2369ZM11.7188 55.2453C10.5129 54.7348 9.62931 53.9965 8.9236 52.9271L-2.76167 60.6377C-0.527986 64.0228 2.52778 66.5573 6.26129 68.1377L11.7188 55.2453ZM8.93557 52.9453C8.43189 52.1768 7.88785 50.7359 7.89908 48.0848L-6.10079 48.0255C-6.11986 52.5259 -5.20936 56.9032 -2.77364 60.6195L8.93557 52.9453ZM0.899148 55.0551H13.5355V41.0551H0.899148V55.0551ZM6.54082 48.3277C6.60941 50.0883 6.91735 51.9813 7.705 53.7963L20.5478 48.223C20.5971 48.3365 20.5967 48.3723 20.5814 48.296C20.566 48.219 20.5408 48.0542 20.5302 47.7826L6.54082 48.3277ZM7.74974 53.8972C8.57604 55.722 9.89243 57.4634 11.8411 58.7161L19.4117 46.9396C20.0877 47.3742 20.4041 47.9034 20.5031 48.1221L7.74974 53.8972ZM12.0045 58.818C13.9611 60.0011 16.0626 60.4188 17.9901 60.4188V46.4188C18.0691 46.4188 18.5947 46.4425 19.2484 46.8377L12.0045 58.818ZM17.9901 60.4188C19.9472 60.4188 22.1285 59.9859 24.139 58.6934L16.5684 46.9169C17.3062 46.4426 17.9117 46.4188 17.9901 46.4188V60.4188ZM24.0761 58.7334C26.1124 57.4547 27.4821 55.6317 28.2961 53.6706L15.3658 48.3033C15.429 48.151 15.5541 47.9062 15.7789 47.6296C16.0086 47.3468 16.298 47.0862 16.6313 46.8769L24.0761 58.7334ZM28.3136 53.628C29.0719 51.7668 29.3306 49.8341 29.3531 48.0528L15.3543 47.8756C15.3506 48.1647 15.3285 48.3412 15.314 48.4248C15.2996 48.508 15.298 48.4693 15.3483 48.3459L28.3136 53.628ZM29.3537 47.9642V16.0551H15.3537V47.9642H29.3537ZM82.8651 52.4415L88.9508 55.9005L88.9571 55.8893L82.8651 52.4415ZM74.706 60.5097L77.9887 66.6922L77.9994 66.6865L78.01 66.6808L74.706 60.5097ZM51.7514 60.4869L48.4148 66.6406L48.4311 66.6494L48.4474 66.6581L51.7514 60.4869ZM43.6151 52.396L37.5119 55.8242L37.5206 55.8396L37.5294 55.855L43.6151 52.396ZM43.6151 26.2369L37.523 22.7891L37.5182 22.7977L43.6151 26.2369ZM51.7514 18.1688L55.0455 24.3452L55.0555 24.3399L51.7514 18.1688ZM74.706 18.1688L71.4019 24.3399L71.4126 24.3456L71.4232 24.3513L74.706 18.1688ZM82.8651 26.2369L76.773 29.6848L76.7794 29.6959L82.8651 26.2369ZM71.7741 32.2824L65.2262 34.7572L65.238 34.7884L65.2501 34.8195L71.7741 32.2824ZM68.5241 27.9188L64.5017 33.6477L64.5364 33.672L64.5714 33.6959L68.5241 27.9188ZM57.956 27.9188L61.9372 33.6763L61.9436 33.6719L61.9499 33.6676L57.956 27.9188ZM54.706 32.2824L48.1752 29.7627L48.1698 29.7765L48.1646 29.7904L54.706 32.2824ZM54.706 46.396L48.158 48.8708L48.1698 48.9021L48.1819 48.9332L54.706 46.396ZM57.956 50.7597L53.9336 56.4886L53.9682 56.5129L54.0032 56.5368L57.956 50.7597ZM68.5241 50.7597L72.5054 56.5172L72.5117 56.5129L72.5181 56.5085L68.5241 50.7597ZM71.7741 46.396L65.2434 43.8763L65.238 43.8902L65.2327 43.9041L71.7741 46.396ZM78.8878 39.3279C78.8878 43.6176 78.0545 46.7294 76.7731 48.9937L88.9571 55.8893C91.7059 51.0323 92.8878 45.4017 92.8878 39.3279H78.8878ZM76.7794 48.9825C75.3828 51.4397 73.6021 53.1605 71.4019 54.3385L78.01 66.6808C82.6583 64.1921 86.3171 60.5342 88.9507 55.9005L76.7794 48.9825ZM71.4232 54.3272C69.0957 55.563 66.4202 56.2369 63.2514 56.2369V70.2369C68.5069 70.2369 73.4677 69.0927 77.9887 66.6922L71.4232 54.3272ZM63.2514 56.2369C60.053 56.2369 57.3717 55.5559 55.0555 54.3158L48.4474 66.6581C52.9797 69.0847 57.965 70.2369 63.2514 70.2369V56.2369ZM55.088 54.3333C52.8897 53.1414 51.1043 51.4065 49.7007 48.9371L37.5294 55.855C40.1561 60.4765 43.7949 64.1356 48.4148 66.6406L55.088 54.3333ZM49.7182 48.9679C48.4408 46.6938 47.6151 43.5872 47.6151 39.3279H33.6151C33.6151 45.3716 34.7893 50.9771 37.5119 55.8242L49.7182 48.9679ZM47.6151 39.3279C47.6151 35.0287 48.4444 31.9231 49.7119 29.6762L37.5182 22.7977C34.7857 27.6417 33.6151 33.2634 33.6151 39.3279H47.6151ZM49.7071 29.6848C51.108 27.2095 52.8795 25.5004 55.0455 24.3452L48.4573 11.9923C43.8051 14.4735 40.1525 18.1432 37.523 22.7891L49.7071 29.6848ZM55.0555 24.3399C57.3717 23.0998 60.053 22.4188 63.2514 22.4188V8.41877C57.965 8.41877 52.9797 9.57102 48.4474 11.9976L55.0555 24.3399ZM63.2514 22.4188C66.4105 22.4188 69.0784 23.0959 71.4019 24.3399L78.01 11.9976C73.485 9.57492 68.5166 8.41877 63.2514 8.41877V22.4188ZM71.4232 24.3513C73.6032 25.5088 75.3766 27.2174 76.7731 29.6848L88.9571 22.7891C86.3232 18.1352 82.6572 14.4651 77.9887 11.9862L71.4232 24.3513ZM76.7794 29.6959C78.054 31.9385 78.8878 35.0366 78.8878 39.3279H92.8878C92.8878 33.2554 91.7064 27.6263 88.9507 22.778L76.7794 29.6959ZM79.8878 39.3279C79.8878 35.9652 79.4463 32.6976 78.2982 29.7453L65.2501 34.8195C65.5868 35.6854 65.8878 37.1148 65.8878 39.3279H79.8878ZM78.3221 29.8076C77.1814 26.7896 75.2995 24.0728 72.4769 22.1416L64.5714 33.6959C64.6276 33.7344 64.9123 33.9267 65.2262 34.7572L78.3221 29.8076ZM72.5466 22.1899C69.7231 20.2075 66.486 19.4188 63.2514 19.4188V33.4188C64.1987 33.4188 64.4767 33.6301 64.5017 33.6477L72.5466 22.1899ZM63.2514 19.4188C60.0142 19.4188 56.7856 20.2083 53.9621 22.17L61.9499 33.6676C62.0051 33.6292 62.3069 33.4188 63.2514 33.4188V19.4188ZM53.9747 22.1612C51.1887 24.0877 49.3248 26.7831 48.1752 29.7627L61.2367 34.8021C61.572 33.9332 61.8748 33.7195 61.9372 33.6763L53.9747 22.1612ZM48.1646 29.7904C47.0457 32.7275 46.6151 35.9783 46.6151 39.3279H60.6151C60.6151 37.1017 60.9117 35.6554 61.2474 34.7744L48.1646 29.7904ZM46.6151 39.3279C46.6151 42.6802 47.0464 45.9297 48.158 48.8708L61.2539 43.9212C60.9109 43.0139 60.6151 41.5513 60.6151 39.3279H46.6151ZM48.1819 48.9332C49.3345 51.897 51.1904 54.5625 53.9336 56.4886L61.9784 45.0308C61.8731 44.9568 61.5622 44.7133 61.23 43.8589L48.1819 48.9332ZM54.0032 56.5368C56.8222 58.4656 60.0354 59.2369 63.2514 59.2369V45.2369C62.2856 45.2369 61.9686 45.0234 61.9088 44.9825L54.0032 56.5368ZM63.2514 59.2369C66.4647 59.2369 69.6864 58.4665 72.5054 56.5172L64.5429 45.0021C64.5134 45.0225 64.22 45.2369 63.2514 45.2369V59.2369ZM72.5181 56.5085C75.2976 54.5775 77.1718 51.8905 78.3156 48.888L65.2327 43.9041C64.922 44.7198 64.6295 44.9419 64.5302 45.0109L72.5181 56.5085ZM78.3049 48.9158C79.4455 45.9595 79.8878 42.6933 79.8878 39.3279H65.8878C65.8878 41.5382 65.5876 42.9841 65.2434 43.8763L78.3049 48.9158ZM116.825 30.6006L109.848 31.1588L110.363 37.6006H116.825V30.6006ZM115.121 27.0551L110.592 32.3927L110.612 32.4095L110.632 32.4261L115.121 27.0551ZM107.348 26.2597L109.779 32.8239L109.812 32.8117L109.845 32.7992L107.348 26.2597ZM105.53 27.5097L99.9106 23.3354L99.9106 23.3354L105.53 27.5097ZM104.916 29.3279L111.906 29.7057L111.912 29.5946L111.914 29.4834L104.916 29.3279ZM105.212 30.8506L98.9507 33.9811L99.0141 34.1079L99.0826 34.2321L105.212 30.8506ZM106.348 32.0551L102.311 37.7739L102.368 37.8141L102.426 37.8531L106.348 32.0551ZM111.189 33.7824L112.656 26.9378L112.627 26.9316L112.598 26.9257L111.189 33.7824ZM115.007 34.6006L113.54 41.4452L113.549 41.447L113.557 41.4487L115.007 34.6006ZM121.621 36.7597L118.553 43.0516L121.621 36.7597ZM126.121 39.9188L121.077 44.773L121.093 44.7889L121.108 44.8047L126.121 39.9188ZM128.689 43.9642L122.11 46.3564L122.121 46.3857L122.132 46.4148L128.689 43.9642ZM129.553 48.8733L136.552 48.908L136.553 48.8607L136.552 48.8135L129.553 48.8733ZM127.257 56.646L132.953 60.7147L132.953 60.7147L127.257 56.646ZM120.757 61.4869L118.2 54.9708L118.188 54.9755L120.757 61.4869ZM100.053 61.3506L97.4585 67.8522L97.4697 67.8567L100.053 61.3506ZM93.0526 55.8279L87.2119 59.6862L87.2255 59.7067L87.2391 59.7271L93.0526 55.8279ZM90.5526 46.2369V39.2369H83.5253L83.5526 46.2642L90.5526 46.2369ZM102.553 46.2369L109.543 45.8651L109.19 39.2369H102.553V46.2369ZM103.621 49.8279L97.7684 53.6685L97.7684 53.6685L103.621 49.8279ZM106.303 52.0324L103.515 58.4532L103.53 58.4599L103.545 58.4664L106.303 52.0324ZM113.848 52.2824L116.258 58.8545L116.258 58.8545L113.848 52.2824ZM115.916 50.896L121.396 55.2517L121.396 55.2517L115.916 50.896ZM116.643 48.8733L123.642 49.0133L123.645 48.8688L123.642 48.7244L116.643 48.8733ZM115.939 47.0097L110.488 51.401L110.555 51.4841L110.624 51.5652L115.939 47.0097ZM113.757 45.5551L110.977 51.9792L111.017 51.9968L111.058 52.0138L113.757 45.5551ZM109.643 44.3279L111.143 37.4903L111.131 37.4878L111.119 37.4852L109.643 44.3279ZM105.007 43.3279L103.523 50.1688L103.531 50.1705L105.007 43.3279ZM95.2571 38.8506L90.6003 44.0769L90.618 44.0926L90.6357 44.1082L95.2571 38.8506ZM91.7344 30.2369L98.7343 30.2661L98.7344 30.2336L98.7343 30.2011L91.7344 30.2369ZM94.098 22.4869L88.4202 18.3927L88.4151 18.3999L94.098 22.4869ZM100.757 17.2824L97.9585 10.8662L97.946 10.8717L100.757 17.2824ZM120.303 17.3051L117.385 23.668L117.385 23.668L120.303 17.3051ZM126.643 22.6233L120.772 26.4341L120.786 26.4567L120.801 26.4792L126.643 22.6233ZM128.916 30.6006V37.6006H135.951L135.916 30.5658L128.916 30.6006ZM123.803 30.0424C123.556 26.9573 122.285 23.9199 119.61 21.6842L110.632 32.4261C110.38 32.2157 110.152 31.9285 109.999 31.6109C109.856 31.312 109.845 31.1256 109.848 31.1588L123.803 30.0424ZM119.65 21.7176C116.844 19.3373 113.375 18.7824 110.553 18.7824V32.7824C110.825 32.7824 111.025 32.7967 111.162 32.813C111.3 32.8293 111.357 32.8457 111.35 32.8438C111.333 32.8392 111.005 32.7434 110.592 32.3927L119.65 21.7176ZM110.553 18.7824C108.754 18.7824 106.759 18.9917 104.851 19.7201L109.845 32.7992C109.702 32.8539 109.671 32.8453 109.805 32.8254C109.937 32.8058 110.178 32.7824 110.553 32.7824V18.7824ZM104.917 19.6954C103.227 20.3213 101.335 21.4182 99.9106 23.3354L111.149 31.6839C110.513 32.5406 109.833 32.8041 109.779 32.8239L104.917 19.6954ZM99.9106 23.3354C98.6224 25.0696 97.9642 27.0905 97.9179 29.1723L111.914 29.4834C111.907 29.8044 111.852 30.1886 111.713 30.6004C111.574 31.0143 111.375 31.3803 111.149 31.6839L99.9106 23.3354ZM97.9264 28.95C97.8376 30.5933 98.1247 32.3292 98.9507 33.9811L111.473 27.7201C111.844 28.4629 111.934 29.1836 111.906 29.7057L97.9264 28.95ZM99.0826 34.2321C99.9507 35.8055 101.147 36.952 102.311 37.7739L110.385 26.3364C110.519 26.431 110.957 26.7745 111.341 27.469L99.0826 34.2321ZM102.426 37.8531C103.568 38.6254 104.797 39.1812 105.963 39.5991L110.688 26.4203C110.481 26.3463 110.347 26.2875 110.272 26.2513C110.195 26.2144 110.204 26.2121 110.27 26.2571L102.426 37.8531ZM105.963 39.5991C107.158 40.0275 108.447 40.3653 109.78 40.6391L112.598 26.9257C111.719 26.745 111.099 26.5677 110.688 26.4203L105.963 39.5991ZM109.722 40.627L113.54 41.4452L116.474 27.756L112.656 26.9378L109.722 40.627ZM113.557 41.4487C115.726 41.908 117.358 42.4688 118.553 43.0516L124.689 30.4678C122.217 29.2627 119.44 28.3841 116.457 27.7525L113.557 41.4487ZM118.553 43.0516C119.8 43.6599 120.586 44.2628 121.077 44.773L131.164 35.0645C129.322 33.1505 127.108 31.6474 124.689 30.4678L118.553 43.0516ZM121.108 44.8047C121.615 45.3251 121.92 45.8333 122.11 46.3564L135.267 41.572C134.367 39.0952 132.96 36.9063 131.134 35.0329L121.108 44.8047ZM122.132 46.4148C122.378 47.0723 122.544 47.89 122.553 48.9331L136.552 48.8135C136.531 46.3112 136.121 43.8561 135.246 41.5136L122.132 46.4148ZM122.553 48.8387C122.543 50.7112 122.096 51.8283 121.561 52.5774L132.953 60.7147C135.449 57.2213 136.531 53.1566 136.552 48.908L122.553 48.8387ZM121.561 52.5774C120.954 53.4274 119.965 54.278 118.2 54.9708L123.315 68.0031C127.186 66.4838 130.53 64.1071 132.953 60.7147L121.561 52.5774ZM118.188 54.9755C116.412 55.6764 113.96 56.146 110.643 56.146V70.146C115.206 70.146 119.496 69.5097 123.326 67.9984L118.188 54.9755ZM110.643 56.146C107.272 56.146 104.653 55.6455 102.635 54.8445L97.4697 67.8567C101.482 69.4496 105.924 70.146 110.643 70.146V56.146ZM102.647 54.849C100.848 54.1314 99.6832 53.1471 98.866 51.9286L87.2391 59.7271C89.7552 63.4783 93.257 66.1758 97.4585 67.8522L102.647 54.849ZM98.8932 51.9695C98.1877 50.9016 97.5639 49.144 97.5525 46.2097L83.5526 46.2642C83.5715 51.1178 84.6144 55.7541 87.2119 59.6862L98.8932 51.9695ZM90.5526 53.2369H102.553V39.2369H90.5526V53.2369ZM95.5624 46.6088C95.689 48.9872 96.3127 51.4503 97.7684 53.6685L109.473 45.9873C109.513 46.0479 109.541 46.1015 109.56 46.1429C109.579 46.1839 109.586 46.2071 109.586 46.207C109.585 46.2054 109.555 46.103 109.543 45.8651L95.5624 46.6088ZM97.7684 53.6685C99.2149 55.8727 101.22 57.4568 103.515 58.4532L109.091 45.6116C109.061 45.5989 109.117 45.6196 109.214 45.6988C109.313 45.7807 109.405 45.8832 109.473 45.9873L97.7684 53.6685ZM103.545 58.4664C105.781 59.4248 108.15 59.7824 110.462 59.7824V45.7824C109.561 45.7824 109.157 45.64 109.06 45.5984L103.545 58.4664ZM110.462 59.7824C112.334 59.7824 114.339 59.5582 116.258 58.8545L111.438 45.7103C111.504 45.6862 111.47 45.707 111.297 45.7325C111.126 45.7578 110.853 45.7824 110.462 45.7824V59.7824ZM116.258 58.8545C118.038 58.2017 119.929 57.097 121.396 55.2517L110.436 46.5403C110.964 45.8769 111.476 45.6964 111.438 45.7103L116.258 58.8545ZM121.396 55.2517C122.824 53.455 123.596 51.2982 123.642 49.0133L109.645 48.7333C109.652 48.3959 109.713 47.9974 109.863 47.5788C110.014 47.1598 110.222 46.8103 110.436 46.5403L121.396 55.2517ZM123.642 48.7244C123.593 46.4278 122.785 44.2406 121.254 42.4541L110.624 51.5652C110.35 51.2459 110.093 50.8364 109.908 50.3487C109.725 49.8627 109.653 49.4037 109.645 49.0222L123.642 48.7244ZM121.39 42.6184C119.918 40.7906 117.992 39.7381 116.456 39.0964L111.058 52.0138C111.252 52.0951 111.272 52.1219 111.181 52.0613C111.092 52.0022 110.81 51.8006 110.488 51.401L121.39 42.6184ZM116.538 39.1311C114.94 38.4397 113.082 37.9156 111.143 37.4903L108.144 51.1654C109.659 51.4977 110.544 51.7918 110.977 51.9792L116.538 39.1311ZM111.119 37.4852L106.483 36.4852L103.531 50.1705L108.168 51.1705L111.119 37.4852ZM106.491 36.4869C103.161 35.7647 101.115 34.68 99.8785 33.5929L90.6357 44.1082C94.1566 47.203 98.6105 49.1031 103.523 50.1688L106.491 36.4869ZM99.9139 33.6243C99.2786 33.0582 98.7261 32.226 98.7343 30.2661L84.7344 30.2078C84.7123 35.5206 86.5084 40.4309 90.6003 44.0769L99.9139 33.6243ZM98.7343 30.2011C98.726 28.5938 99.1274 27.4828 99.781 26.574L88.4151 18.3999C85.8868 21.9154 84.7124 25.9711 84.7345 30.2728L98.7343 30.2011ZM99.7758 26.5811C100.561 25.492 101.732 24.4984 103.568 23.6931L97.946 10.8717C94.1156 12.5513 90.847 15.0273 88.4202 18.3928L99.7758 26.5811ZM103.556 23.6986C105.374 22.9056 107.659 22.4188 110.553 22.4188V8.41877C106.083 8.41877 101.837 9.17432 97.9585 10.8662L103.556 23.6986ZM110.553 22.4188C113.543 22.4188 115.754 22.9201 117.385 23.668L123.22 10.9422C119.367 9.17504 115.077 8.41877 110.553 8.41877V22.4188ZM117.385 23.668C119.053 24.433 120.085 25.3761 120.772 26.4341L132.515 18.8125C130.232 15.2947 127.037 12.6924 123.22 10.9422L117.385 23.668ZM120.801 26.4792C121.466 27.4863 121.907 28.7826 121.916 30.6354L135.916 30.5658C135.895 26.3277 134.821 22.3058 132.486 18.7674L120.801 26.4792ZM128.916 23.6006H116.825V37.6006H128.916V23.6006ZM134.359 62.6006H127.359V69.6006H134.359V62.6006ZM134.359 16.0551V9.05513H127.359V16.0551H134.359ZM146.996 16.0551H153.996V9.05513H146.996V16.0551ZM146.996 34.2369H139.996V41.2369H146.996V34.2369ZM163.723 34.2369V41.2369H170.723V34.2369H163.723ZM163.723 16.0551V9.05513H156.723V16.0551H163.723ZM176.359 16.0551H183.359V9.05513H176.359V16.0551ZM176.359 62.6006V69.6006H183.359V62.6006H176.359ZM163.723 62.6006H156.723V69.6006H163.723V62.6006ZM163.723 44.4188H170.723V37.4188H163.723V44.4188ZM146.996 44.4188V37.4188H139.996V44.4188H146.996ZM146.996 62.6006V69.6006H153.996V62.6006H146.996ZM141.359 62.6006V16.0551H127.359V62.6006H141.359ZM134.359 23.0551H146.996V9.05513H134.359V23.0551ZM139.996 16.0551V34.2369H153.996V16.0551H139.996ZM146.996 41.2369H163.723V27.2369H146.996V41.2369ZM170.723 34.2369V16.0551H156.723V34.2369H170.723ZM163.723 23.0551H176.359V9.05513H163.723V23.0551ZM169.359 16.0551V62.6006H183.359V16.0551H169.359ZM176.359 55.6006H163.723V69.6006H176.359V55.6006ZM170.723 62.6006V44.4188H156.723V62.6006H170.723ZM163.723 37.4188H146.996V51.4188H163.723V37.4188ZM139.996 44.4188V62.6006H153.996V44.4188H139.996ZM146.996 55.6006H134.359V69.6006H146.996V55.6006ZM209.905 16.0551V9.05513H202.905V16.0551H209.905ZM222.541 16.0551H229.541V9.05513H222.541V16.0551ZM219.996 55.0779L214.14 51.2425L214.135 51.2508L219.996 55.0779ZM212.95 61.0551L215.888 67.409L215.901 67.4029L215.914 67.3968L212.95 61.0551ZM191.905 61.0551L188.941 67.3968L188.954 67.4029L188.967 67.409L191.905 61.0551ZM184.859 55.0779L178.972 58.8649L178.985 58.8849L178.998 58.9049L184.859 55.0779ZM182.359 16.0551V9.05513H175.359V16.0551H182.359ZM194.996 16.0551H201.996V9.05513H194.996V16.0551ZM195.95 48.646L189.843 52.0663L189.853 52.0838L189.862 52.1013L195.95 48.646ZM198.587 51.2824L195.131 57.3702L195.149 57.3801L195.166 57.3899L198.587 51.2824ZM206.314 51.2824L209.769 57.3702L209.769 57.3702L206.314 51.2824ZM208.95 48.646L215.038 52.1013L215.048 52.0838L215.058 52.0663L208.95 48.646ZM209.905 23.0551H222.541V9.05513H209.905V23.0551ZM215.541 16.0551V45.8733H229.541V16.0551H215.541ZM215.541 45.8733C215.541 48.2589 214.987 49.9499 214.14 51.2425L225.852 58.9132C228.399 55.024 229.541 50.5787 229.541 45.8733H215.541ZM214.135 51.2508C213.224 52.6456 211.921 53.8094 209.987 54.7135L215.914 67.3968C220.01 65.4826 223.404 62.6616 225.857 58.9049L214.135 51.2508ZM210.013 54.7013C208.084 55.5931 205.62 56.146 202.45 56.146V70.146C207.25 70.146 211.787 69.305 215.888 67.409L210.013 54.7013ZM202.45 56.146C199.242 56.146 196.765 55.5901 194.842 54.7013L188.967 67.409C193.075 69.308 197.629 70.146 202.45 70.146V56.146ZM194.869 54.7135C192.934 53.8094 191.631 52.6456 190.721 51.2508L178.998 58.9049C181.451 62.6616 184.845 65.4826 188.941 67.3968L194.869 54.7135ZM190.747 51.2908C189.911 49.9921 189.359 48.2833 189.359 45.8733H175.359C175.359 50.5542 176.474 54.9818 178.972 58.8649L190.747 51.2908ZM189.359 45.8733V16.0551H175.359V45.8733H189.359ZM182.359 23.0551H194.996V9.05513H182.359V23.0551ZM187.996 16.0551V44.7824H201.996V16.0551H187.996ZM187.996 44.7824C187.996 47.2906 188.561 49.778 189.843 52.0663L202.058 45.2258C202.052 45.2148 202.042 45.1956 202.03 45.1489C202.018 45.0987 201.996 44.9839 201.996 44.7824H187.996ZM189.862 52.1013C191.123 54.3216 192.911 56.11 195.131 57.3702L202.042 45.1946C202.032 45.1889 202.025 45.1848 202.022 45.1825C202.018 45.1802 202.017 45.1793 202.018 45.18C202.019 45.1808 202.022 45.1826 202.025 45.1857C202.028 45.1887 202.032 45.1923 202.036 45.1963C202.04 45.2003 202.044 45.2042 202.047 45.2077C202.05 45.2111 202.052 45.2135 202.053 45.2145C202.053 45.2155 202.053 45.2144 202.05 45.2109C202.048 45.2074 202.044 45.2008 202.038 45.1908L189.862 52.1013ZM195.166 57.3899C197.455 58.6714 199.942 59.2369 202.45 59.2369V45.2369C202.249 45.2369 202.134 45.215 202.084 45.2026C202.037 45.1911 202.018 45.181 202.007 45.1749L195.166 57.3899ZM202.45 59.2369C204.958 59.2369 207.465 58.678 209.769 57.3702L202.859 45.1946C202.871 45.1876 202.869 45.1927 202.828 45.2026C202.783 45.2137 202.666 45.2369 202.45 45.2369V59.2369ZM209.769 57.3702C211.989 56.11 213.778 54.3216 215.038 52.1013L202.862 45.1908C202.857 45.2008 202.853 45.2074 202.85 45.2109C202.848 45.2144 202.847 45.2155 202.848 45.2145C202.849 45.2135 202.851 45.2111 202.854 45.2077C202.857 45.2042 202.86 45.2003 202.864 45.1963C202.868 45.1923 202.872 45.1887 202.876 45.1857C202.879 45.1826 202.881 45.1808 202.882 45.18C202.883 45.1793 202.882 45.1802 202.879 45.1825C202.875 45.1848 202.869 45.1889 202.859 45.1946L209.769 57.3702ZM215.058 52.0663C216.339 49.778 216.905 47.2906 216.905 44.7824H202.905C202.905 44.9839 202.883 45.0987 202.871 45.1489C202.859 45.1956 202.849 45.2148 202.843 45.2258L215.058 52.0663ZM216.905 44.7824V16.0551H202.905V44.7824H216.905ZM240.638 62.6006V69.6006H245.837L247.339 64.6236L240.638 62.6006ZM227.001 62.6006L220.354 60.4065L217.319 69.6006H227.001V62.6006ZM242.365 16.0551V9.05513H237.304L235.718 13.861L242.365 16.0551ZM259.638 16.0551L266.285 13.861L264.699 9.05513H259.638V16.0551ZM275.001 62.6006V69.6006H284.683L281.649 60.4065L275.001 62.6006ZM261.365 62.6006L254.664 64.6236L256.166 69.6006H261.365V62.6006ZM251.183 28.8733L257.885 26.8503L256.382 21.8733H251.183V28.8733ZM250.82 28.8733V21.8733H245.621L244.118 26.8503L250.82 28.8733ZM238.092 44.2369V37.2369H231.092V44.2369H238.092ZM263.729 44.2369H270.729V37.2369H263.729V44.2369ZM263.729 53.6915V60.6915H270.729V53.6915H263.729ZM238.092 53.6915H231.092V60.6915H238.092V53.6915ZM240.638 55.6006H227.001V69.6006H240.638V55.6006ZM233.649 64.7947L249.012 18.2492L235.718 13.861L220.354 60.4065L233.649 64.7947ZM242.365 23.0551H259.638V9.05513H242.365V23.0551ZM252.991 18.2492L268.354 64.7947L281.649 60.4065L266.285 13.861L252.991 18.2492ZM275.001 55.6006H261.365V69.6006H275.001V55.6006ZM268.066 60.5776L257.885 26.8503L244.482 30.8963L254.664 64.6236L268.066 60.5776ZM251.183 21.8733H250.82V35.8733H251.183V21.8733ZM244.118 26.8503L233.936 60.5776L247.339 64.6236L257.521 30.8963L244.118 26.8503ZM238.092 51.2369H263.729V37.2369H238.092V51.2369ZM256.729 44.2369V53.6915H270.729V44.2369H256.729ZM263.729 46.6915H238.092V60.6915H263.729V46.6915ZM245.092 53.6915V44.2369H231.092V53.6915H245.092Z" fill="white"/>
<path d="M284.085 16.0585L293.63 48.8767H293.994L303.539 16.0585H317.812L302.448 62.604H285.176L269.812 16.0585H284.085ZM326.761 62.604H313.124L328.488 16.0585H345.761L361.124 62.604H347.488L337.306 28.8767H336.943L326.761 62.604ZM324.215 44.2404H349.852V53.6949H324.215V44.2404ZM406.874 33.5131H394.056C393.965 32.4525 393.723 31.4904 393.329 30.6267C392.95 29.7631 392.42 29.0207 391.738 28.3995C391.071 27.7631 390.261 27.2782 389.306 26.9449C388.352 26.5964 387.268 26.4222 386.056 26.4222C383.935 26.4222 382.14 26.9373 380.67 27.9676C379.215 28.9979 378.109 30.4752 377.352 32.3995C376.609 34.3237 376.238 36.6343 376.238 39.3313C376.238 42.1798 376.617 44.5661 377.374 46.4904C378.147 48.3995 379.261 49.8389 380.715 50.8085C382.17 51.7631 383.92 52.2404 385.965 52.2404C387.132 52.2404 388.177 52.0964 389.102 51.8085C390.026 51.5055 390.829 51.0737 391.511 50.5131C392.193 49.9525 392.746 49.2782 393.17 48.4904C393.609 47.6873 393.905 46.7858 394.056 45.7858L406.874 45.8767C406.723 47.8464 406.17 49.854 405.215 51.8995C404.261 53.9298 402.905 55.8085 401.147 57.5358C399.405 59.2479 397.246 60.6267 394.67 61.6722C392.094 62.7176 389.102 63.2404 385.693 63.2404C381.42 63.2404 377.587 62.3237 374.193 60.4904C370.814 58.657 368.14 55.9601 366.17 52.3995C364.215 48.8389 363.238 44.4828 363.238 39.3313C363.238 34.1495 364.238 29.7858 366.238 26.2404C368.238 22.6798 370.935 19.9904 374.329 18.1722C377.723 16.3389 381.511 15.4222 385.693 15.4222C388.632 15.4222 391.337 15.8237 393.806 16.6267C396.276 17.4298 398.443 18.604 400.306 20.1495C402.17 21.6798 403.67 23.5661 404.806 25.8085C405.943 28.051 406.632 30.6192 406.874 33.5131ZM412.607 62.604V16.0585H425.244V34.2404H441.971V16.0585H454.607V62.604H441.971V44.4222H425.244V62.604H412.607ZM505.698 39.3313C505.698 44.5131 504.691 48.8843 502.676 52.4449C500.66 55.9904 497.941 58.6798 494.517 60.5131C491.092 62.3313 487.274 63.2404 483.062 63.2404C478.82 63.2404 474.986 62.3237 471.562 60.4904C468.153 58.6419 465.441 55.9449 463.426 52.3995C461.426 48.8389 460.426 44.4828 460.426 39.3313C460.426 34.1495 461.426 29.7858 463.426 26.2404C465.441 22.6798 468.153 19.9904 471.562 18.1722C474.986 16.3389 478.82 15.4222 483.062 15.4222C487.274 15.4222 491.092 16.3389 494.517 18.1722C497.941 19.9904 500.66 22.6798 502.676 26.2404C504.691 29.7858 505.698 34.1495 505.698 39.3313ZM492.698 39.3313C492.698 36.5434 492.327 34.1949 491.585 32.2858C490.857 30.3616 489.774 28.907 488.335 27.9222C486.91 26.9222 485.153 26.4222 483.062 26.4222C480.971 26.4222 479.206 26.9222 477.767 27.9222C476.342 28.907 475.259 30.3616 474.517 32.2858C473.789 34.1949 473.426 36.5434 473.426 39.3313C473.426 42.1192 473.789 44.4752 474.517 46.3995C475.259 48.3085 476.342 49.7631 477.767 50.7631C479.206 51.7479 480.971 52.2404 483.062 52.2404C485.153 52.2404 486.91 51.7479 488.335 50.7631C489.774 49.7631 490.857 48.3085 491.585 46.3995C492.327 44.4752 492.698 42.1192 492.698 39.3313ZM551.818 16.0585V62.604H541.272L524.454 38.1495H524.181V62.604H511.545V16.0585H522.272L538.818 40.4222H539.181V16.0585H551.818Z" fill="#181818"/>
<path d="M284.085 16.0585L290.806 14.1036L289.339 9.05855H284.085V16.0585ZM293.63 48.8767L286.909 50.8317L288.376 55.8767H293.63V48.8767ZM293.994 48.8767V55.8767H299.248L300.715 50.8317L293.994 48.8767ZM303.539 16.0585V9.05855H298.285L296.818 14.1036L303.539 16.0585ZM317.812 16.0585L324.459 18.2527L327.494 9.05855H317.812V16.0585ZM302.448 62.604V69.604H307.509L309.096 64.7981L302.448 62.604ZM285.176 62.604L278.528 64.7981L280.115 69.604H285.176V62.604ZM269.812 16.0585V9.05855H260.13L263.165 18.2527L269.812 16.0585ZM277.363 18.0135L286.909 50.8317L300.352 46.9217L290.806 14.1036L277.363 18.0135ZM293.63 55.8767H293.994V41.8767H293.63V55.8767ZM300.715 50.8317L310.261 18.0135L296.818 14.1036L287.272 46.9217L300.715 50.8317ZM303.539 23.0585H317.812V9.05855H303.539V23.0585ZM311.165 13.8644L295.801 60.4099L309.096 64.7981L324.459 18.2527L311.165 13.8644ZM302.448 55.604H285.176V69.604H302.448V55.604ZM291.823 60.4099L276.459 13.8644L263.165 18.2527L278.528 64.7981L291.823 60.4099ZM269.812 23.0585H284.085V9.05855H269.812V23.0585ZM326.761 62.604V69.604H331.96L333.462 64.627L326.761 62.604ZM313.124 62.604L306.477 60.4099L303.442 69.604H313.124V62.604ZM328.488 16.0585V9.05855H323.427L321.841 13.8644L328.488 16.0585ZM345.761 16.0585L352.408 13.8644L350.822 9.05855H345.761V16.0585ZM361.124 62.604V69.604H370.806L367.772 60.4099L361.124 62.604ZM347.488 62.604L340.787 64.627L342.289 69.604H347.488V62.604ZM337.306 28.8767L344.008 26.8537L342.505 21.8767H337.306V28.8767ZM336.943 28.8767V21.8767H331.744L330.241 26.8537L336.943 28.8767ZM324.215 44.2404V37.2404H317.215V44.2404H324.215ZM349.852 44.2404H356.852V37.2404H349.852V44.2404ZM349.852 53.6949V60.6949H356.852V53.6949H349.852ZM324.215 53.6949H317.215V60.6949H324.215V53.6949ZM326.761 55.604H313.124V69.604H326.761V55.604ZM319.772 64.7981L335.135 18.2527L321.841 13.8644L306.477 60.4099L319.772 64.7981ZM328.488 23.0585H345.761V9.05855H328.488V23.0585ZM339.114 18.2527L354.477 64.7981L367.772 60.4099L352.408 13.8644L339.114 18.2527ZM361.124 55.604H347.488V69.604H361.124V55.604ZM354.189 60.581L344.008 26.8537L330.605 30.8998L340.787 64.627L354.189 60.581ZM337.306 21.8767H336.943V35.8767H337.306V21.8767ZM330.241 26.8537L320.06 60.581L333.462 64.627L343.644 30.8998L330.241 26.8537ZM324.215 51.2404H349.852V37.2404H324.215V51.2404ZM342.852 44.2404V53.6949H356.852V44.2404H342.852ZM349.852 46.6949H324.215V60.6949H349.852V46.6949ZM331.215 53.6949V44.2404H317.215V53.6949H331.215ZM406.874 33.5131V40.5131H414.485L413.85 32.9288L406.874 33.5131ZM394.056 33.5131L387.082 34.1109L387.631 40.5131H394.056V33.5131ZM393.329 30.6267L386.918 33.4384L386.939 33.4852L386.96 33.5318L393.329 30.6267ZM391.738 28.3995L386.905 33.4629L386.964 33.5191L387.024 33.5738L391.738 28.3995ZM389.306 26.9449L386.906 33.5204L386.952 33.5373L386.999 33.5536L389.306 26.9449ZM380.67 27.9676L376.652 22.2358L376.638 22.2456L376.624 22.2555L380.67 27.9676ZM377.352 32.3995L370.838 29.8351L370.83 29.8574L370.821 29.8797L377.352 32.3995ZM377.374 46.4904L370.861 49.0547L370.873 49.0858L370.886 49.1167L377.374 46.4904ZM380.715 50.8085L376.832 56.6329L376.854 56.647L376.875 56.6609L380.715 50.8085ZM389.102 51.8085L391.183 58.4919L391.233 58.4764L391.283 58.4602L389.102 51.8085ZM391.511 50.5131L395.957 55.9201L395.957 55.9201L391.511 50.5131ZM393.17 48.4904L387.029 45.1303L387.018 45.1509L387.007 45.1717L393.17 48.4904ZM394.056 45.7858L394.106 38.786L388.043 38.743L387.135 44.7372L394.056 45.7858ZM406.874 45.8767L413.854 46.4136L414.43 38.9301L406.924 38.8769L406.874 45.8767ZM405.215 51.8995L411.55 54.8778L411.554 54.8687L411.559 54.8597L405.215 51.8995ZM401.147 57.5358L406.053 62.5288L406.054 62.5284L401.147 57.5358ZM394.67 61.6722L392.037 55.1861L394.67 61.6722ZM374.193 60.4904L370.854 66.643L370.866 66.6492L374.193 60.4904ZM366.17 52.3995L360.034 55.7679L360.039 55.7779L360.045 55.7879L366.17 52.3995ZM366.238 26.2404L372.335 29.6796L372.341 29.6685L366.238 26.2404ZM374.329 18.1722L377.635 24.3425L377.645 24.3368L377.656 24.3311L374.329 18.1722ZM393.806 16.6267L395.971 9.96979L395.971 9.96979L393.806 16.6267ZM400.306 20.1495L395.838 25.5378L395.851 25.5486L395.864 25.5593L400.306 20.1495ZM404.806 25.8085L398.562 28.9727L398.562 28.9728L404.806 25.8085ZM406.874 26.5131H394.056V40.5131H406.874V26.5131ZM401.031 32.9153C400.88 31.1527 400.462 29.3969 399.698 27.7217L386.96 33.5318C386.984 33.5838 387.051 33.7523 387.082 34.1109L401.031 32.9153ZM399.74 27.8151C398.976 26.0745 397.875 24.5215 396.453 23.2251L387.024 33.5738C387.003 33.5552 386.976 33.5262 386.951 33.4909C386.926 33.4558 386.917 33.4342 386.918 33.4384L399.74 27.8151ZM396.571 23.336C395.115 21.9459 393.419 20.9664 391.614 20.3363L386.999 33.5536C387.059 33.5748 387.066 33.5834 387.037 33.5659C387.006 33.5475 386.958 33.5134 386.905 33.4629L396.571 23.336ZM391.707 20.3694C389.851 19.6918 387.933 19.4222 386.056 19.4222V33.4222C386.603 33.4222 386.853 33.5011 386.906 33.5204L391.707 20.3694ZM386.056 19.4222C382.765 19.4222 379.501 20.2386 376.652 22.2358L384.688 33.6995C384.779 33.6361 385.105 33.4222 386.056 33.4222V19.4222ZM376.624 22.2555C373.889 24.1926 372.013 26.8517 370.838 29.8351L383.865 34.9638C384.206 34.0987 384.542 33.8033 384.716 33.6798L376.624 22.2555ZM370.821 29.8797C369.689 32.813 369.238 36.024 369.238 39.3313H383.238C383.238 37.2446 383.529 35.8344 383.883 34.9192L370.821 29.8797ZM369.238 39.3313C369.238 42.7487 369.685 46.0687 370.861 49.0547L383.888 43.926C383.548 43.0635 383.238 41.6108 383.238 39.3313H369.238ZM370.886 49.1167C372.09 52.0918 374.011 54.7522 376.832 56.6329L384.598 44.9842C384.51 44.9256 384.204 44.7071 383.863 43.864L370.886 49.1167ZM376.875 56.6609C379.659 58.4879 382.8 59.2404 385.965 59.2404V45.2404C385.04 45.2404 384.681 45.0383 384.556 44.9562L376.875 56.6609ZM385.965 59.2404C387.698 59.2404 389.464 59.0275 391.183 58.4919L387.02 45.1252C386.891 45.1653 386.566 45.2404 385.965 45.2404V59.2404ZM391.283 58.4602C392.948 57.914 394.538 57.0861 395.957 55.9201L387.065 45.1061C387.087 45.0882 387.096 45.0847 387.082 45.0922C387.067 45.1004 387.017 45.1254 386.921 45.1569L391.283 58.4602ZM395.957 55.9201C397.351 54.7735 398.484 53.3867 399.333 51.8091L387.007 45.1717C387.003 45.1792 387.008 45.168 387.025 45.1477C387.042 45.1271 387.057 45.1125 387.065 45.1061L395.957 55.9201ZM399.311 51.8505C400.183 50.257 400.716 48.56 400.977 46.8345L387.135 44.7372C387.094 45.0117 387.036 45.1176 387.029 45.1303L399.311 51.8505ZM394.007 52.7856L406.825 52.8766L406.924 38.8769L394.106 38.786L394.007 52.7856ZM399.895 45.3399C399.817 46.3594 399.521 47.5492 398.872 48.9393L411.559 54.8597C412.819 52.1588 413.629 49.3334 413.854 46.4136L399.895 45.3399ZM398.881 48.9212C398.312 50.1303 397.465 51.3403 396.241 52.5432L406.054 62.5284C408.345 60.2768 410.21 57.7292 411.55 54.8778L398.881 48.9212ZM396.241 52.5428C395.235 53.5309 393.881 54.4377 392.037 55.1861L397.303 68.1583C400.61 66.8158 403.574 64.965 406.053 62.5288L396.241 52.5428ZM392.037 55.1861C390.464 55.8248 388.398 56.2404 385.693 56.2404V70.2404C389.806 70.2404 393.725 69.6105 397.303 68.1583L392.037 55.1861ZM385.693 56.2404C382.454 56.2404 379.785 55.5552 377.52 54.3315L370.866 66.6492C375.388 69.0922 380.386 70.2404 385.693 70.2404V56.2404ZM377.531 54.3377C375.396 53.1791 373.658 51.475 372.295 49.011L360.045 55.7879C362.621 60.4452 366.232 64.1349 370.854 66.643L377.531 54.3377ZM372.306 49.031C371.051 46.7436 370.238 43.6146 370.238 39.3313H356.238C356.238 45.351 357.38 50.9341 360.034 55.7679L372.306 49.031ZM370.238 39.3313C370.238 35.0321 371.067 31.9265 372.335 29.6796L360.141 22.8011C357.409 27.6452 356.238 33.2668 356.238 39.3313H370.238ZM372.341 29.6685C373.73 27.1958 375.488 25.4927 377.635 24.3425L371.023 12.0018C366.383 14.488 362.746 18.1637 360.135 22.8122L372.341 29.6685ZM377.656 24.3311C379.943 23.0955 382.572 22.4222 385.693 22.4222V8.42218C380.449 8.42218 375.503 9.58218 371.002 12.0133L377.656 24.3311ZM385.693 22.4222C387.992 22.4222 389.956 22.7357 391.642 23.2837L395.971 9.96979C392.717 8.91171 389.272 8.42218 385.693 8.42218V22.4222ZM391.642 23.2837C393.332 23.8332 394.703 24.5969 395.838 25.5378L404.775 14.7612C402.182 12.6111 399.22 11.0263 395.971 9.96979L391.642 23.2837ZM395.864 25.5593C396.946 26.4478 397.845 27.558 398.562 28.9727L411.05 22.6443C409.494 19.5742 407.394 16.9117 404.749 14.7396L395.864 25.5593ZM398.562 28.9728C399.233 30.2955 399.72 31.9646 399.899 34.0974L413.85 32.9288C413.544 29.2737 412.653 25.8064 411.05 22.6443L398.562 28.9728ZM412.607 62.604H405.607V69.604H412.607V62.604ZM412.607 16.0585V9.05855H405.607V16.0585H412.607ZM425.244 16.0585H432.244V9.05855H425.244V16.0585ZM425.244 34.2404H418.244V41.2404H425.244V34.2404ZM441.971 34.2404V41.2404H448.971V34.2404H441.971ZM441.971 16.0585V9.05855H434.971V16.0585H441.971ZM454.607 16.0585H461.607V9.05855H454.607V16.0585ZM454.607 62.604V69.604H461.607V62.604H454.607ZM441.971 62.604H434.971V69.604H441.971V62.604ZM441.971 44.4222H448.971V37.4222H441.971V44.4222ZM425.244 44.4222V37.4222H418.244V44.4222H425.244ZM425.244 62.604V69.604H432.244V62.604H425.244ZM419.607 62.604V16.0585H405.607V62.604H419.607ZM412.607 23.0585H425.244V9.05855H412.607V23.0585ZM418.244 16.0585V34.2404H432.244V16.0585H418.244ZM425.244 41.2404H441.971V27.2404H425.244V41.2404ZM448.971 34.2404V16.0585H434.971V34.2404H448.971ZM441.971 23.0585H454.607V9.05855H441.971V23.0585ZM447.607 16.0585V62.604H461.607V16.0585H447.607ZM454.607 55.604H441.971V69.604H454.607V55.604ZM448.971 62.604V44.4222H434.971V62.604H448.971ZM441.971 37.4222H425.244V51.4222H441.971V37.4222ZM418.244 44.4222V62.604H432.244V44.4222H418.244ZM425.244 55.604H412.607V69.604H425.244V55.604ZM502.676 52.4449L508.761 55.9039L508.768 55.8927L502.676 52.4449ZM494.517 60.5131L497.799 66.6956L497.81 66.69L497.821 66.6843L494.517 60.5131ZM471.562 60.4904L468.225 66.644L468.242 66.6528L468.258 66.6615L471.562 60.4904ZM463.426 52.3995L457.322 55.8276L457.331 55.843L457.34 55.8584L463.426 52.3995ZM463.426 26.2404L457.334 22.7925L457.329 22.8011L463.426 26.2404ZM471.562 18.1722L474.856 24.3487L474.866 24.3434L471.562 18.1722ZM494.517 18.1722L491.212 24.3434L491.223 24.349L491.234 24.3547L494.517 18.1722ZM502.676 26.2404L496.584 29.6882L496.59 29.6993L502.676 26.2404ZM491.585 32.2858L485.037 34.7606L485.049 34.7918L485.061 34.823L491.585 32.2858ZM488.335 27.9222L484.312 33.6511L484.347 33.6754L484.382 33.6993L488.335 27.9222ZM477.767 27.9222L481.748 33.6797L481.754 33.6754L481.76 33.671L477.767 27.9222ZM474.517 32.2858L467.986 29.7661L467.98 29.78L467.975 29.7939L474.517 32.2858ZM474.517 46.3995L467.969 48.8743L467.98 48.9055L467.992 48.9366L474.517 46.3995ZM477.767 50.7631L473.744 56.492L473.779 56.5163L473.814 56.5402L477.767 50.7631ZM488.335 50.7631L492.316 56.5206L492.322 56.5163L492.329 56.5119L488.335 50.7631ZM491.585 46.3995L485.054 43.8797L485.049 43.8936L485.043 43.9075L491.585 46.3995ZM498.698 39.3313C498.698 43.621 497.865 46.7329 496.584 48.9971L508.768 55.8927C511.516 51.0358 512.698 45.4051 512.698 39.3313H498.698ZM496.59 48.986C495.193 51.4431 493.413 53.164 491.212 54.3419L497.821 66.6843C502.469 64.1956 506.128 60.5376 508.761 55.9039L496.59 48.986ZM491.234 54.3306C488.906 55.5664 486.231 56.2404 483.062 56.2404V70.2404C488.317 70.2404 493.278 69.0962 497.799 66.6956L491.234 54.3306ZM483.062 56.2404C479.864 56.2404 477.182 55.5593 474.866 54.3192L468.258 66.6615C472.79 69.0881 477.776 70.2404 483.062 70.2404V56.2404ZM474.899 54.3368C472.7 53.1448 470.915 51.4099 469.511 48.9405L457.34 55.8584C459.967 60.4799 463.605 64.139 468.225 66.644L474.899 54.3368ZM469.529 48.9713C468.251 46.6972 467.426 43.5906 467.426 39.3313H453.426C453.426 45.375 454.6 50.9805 457.322 55.8276L469.529 48.9713ZM467.426 39.3313C467.426 35.0321 468.255 31.9265 469.522 29.6796L457.329 22.8011C454.596 27.6452 453.426 33.2668 453.426 39.3313H467.426ZM469.518 29.6882C470.919 27.2129 472.69 25.5038 474.856 24.3487L468.268 11.9957C463.616 14.4769 459.963 18.1466 457.334 22.7926L469.518 29.6882ZM474.866 24.3434C477.182 23.1033 479.864 22.4222 483.062 22.4222V8.42218C477.776 8.42218 472.79 9.57444 468.258 12.001L474.866 24.3434ZM483.062 22.4222C486.221 22.4222 488.889 23.0994 491.212 24.3434L497.821 12.001C493.296 9.57834 488.327 8.42218 483.062 8.42218V22.4222ZM491.234 24.3547C493.414 25.5122 495.187 27.2209 496.584 29.6882L508.768 22.7926C506.134 18.1387 502.468 14.4685 497.799 11.9897L491.234 24.3547ZM496.59 29.6993C497.865 31.9419 498.698 35.0401 498.698 39.3313H512.698C512.698 33.2589 511.517 27.6297 508.761 22.7814L496.59 29.6993ZM499.698 39.3313C499.698 35.9686 499.257 32.7011 498.109 29.7487L485.061 34.823C485.397 35.6888 485.698 37.1182 485.698 39.3313H499.698ZM498.133 29.811C496.992 26.793 495.11 24.0762 492.287 22.145L484.382 33.6993C484.438 33.7378 484.723 33.9302 485.037 34.7606L498.133 29.811ZM492.357 22.1933C489.534 20.2109 486.297 19.4222 483.062 19.4222V33.4222C484.009 33.4222 484.287 33.6335 484.312 33.6511L492.357 22.1933ZM483.062 19.4222C479.825 19.4222 476.596 20.2117 473.773 22.1734L481.76 33.671C481.816 33.6326 482.117 33.4222 483.062 33.4222V19.4222ZM473.785 22.1646C470.999 24.0911 469.135 26.7865 467.986 29.7661L481.047 34.8056C481.383 33.9366 481.685 33.7229 481.748 33.6797L473.785 22.1646ZM467.975 29.7939C466.856 32.731 466.426 35.9817 466.426 39.3313H480.426C480.426 37.1051 480.722 35.6589 481.058 34.7778L467.975 29.7939ZM466.426 39.3313C466.426 42.6836 466.857 45.9331 467.969 48.8743L481.064 43.9246C480.721 43.0173 480.426 41.5547 480.426 39.3313H466.426ZM467.992 48.9366C469.145 51.9004 471.001 54.5659 473.744 56.492L481.789 45.0342C481.684 44.9603 481.373 44.7167 481.041 43.8623L467.992 48.9366ZM473.814 56.5402C476.633 58.469 479.846 59.2404 483.062 59.2404V45.2404C482.096 45.2404 481.779 45.0269 481.719 44.9859L473.814 56.5402ZM483.062 59.2404C486.275 59.2404 489.497 58.47 492.316 56.5206L484.353 45.0055C484.324 45.0259 484.031 45.2404 483.062 45.2404V59.2404ZM492.329 56.5119C495.108 54.5809 496.982 51.8939 498.126 48.8914L485.043 43.9075C484.733 44.7232 484.44 44.9453 484.341 45.0143L492.329 56.5119ZM498.115 48.9192C499.256 45.9629 499.698 42.6967 499.698 39.3313H485.698C485.698 41.5416 485.398 42.9875 485.054 43.8797L498.115 48.9192ZM551.818 16.0585H558.818V9.05855H551.818V16.0585ZM551.818 62.604V69.604H558.818V62.604H551.818ZM541.272 62.604L535.505 66.5706L537.591 69.604H541.272V62.604ZM524.454 38.1495L530.222 34.1828L528.136 31.1495H524.454V38.1495ZM524.181 38.1495V31.1495H517.181V38.1495H524.181ZM524.181 62.604V69.604H531.181V62.604H524.181ZM511.545 62.604H504.545V69.604H511.545V62.604ZM511.545 16.0585V9.05855H504.545V16.0585H511.545ZM522.272 16.0585L528.063 12.1259L525.98 9.05855H522.272V16.0585ZM538.818 40.4222L533.027 44.3548L535.11 47.4222H538.818V40.4222ZM539.181 40.4222V47.4222H546.181V40.4222H539.181ZM539.181 16.0585V9.05855H532.181V16.0585H539.181ZM544.818 16.0585V62.604H558.818V16.0585H544.818ZM551.818 55.604H541.272V69.604H551.818V55.604ZM547.04 58.6374L530.222 34.1828L518.686 42.1161L535.505 66.5706L547.04 58.6374ZM524.454 31.1495H524.181V45.1495H524.454V31.1495ZM517.181 38.1495V62.604H531.181V38.1495H517.181ZM524.181 55.604H511.545V69.604H524.181V55.604ZM518.545 62.604V16.0585H504.545V62.604H518.545ZM511.545 23.0585H522.272V9.05855H511.545V23.0585ZM516.481 19.9912L533.027 44.3548L544.609 36.4896L528.063 12.1259L516.481 19.9912ZM538.818 47.4222H539.181V33.4222H538.818V47.4222ZM546.181 40.4222V16.0585H532.181V40.4222H546.181ZM539.181 23.0585H551.818V9.05855H539.181V23.0585Z" fill="white"/>
</svg>
